<svg xmlns="http://www.w3.org/2000/svg" viewBox="0 0 512 512" width="512" height="512">
  <defs>
    <linearGradient id="bgGradMask" x1="0%" y1="0%" x2="100%" y2="100%">
      <stop offset="0%" stop-color="#4f46e5"/>
      <stop offset="50%" stop-color="#3730a3"/>
      <stop offset="100%" stop-color="#1e1b4b"/>
    </linearGradient>
    <linearGradient id="goldGradMask" x1="0%" y1="0%" x2="100%" y2="100%">
      <stop offset="0%" stop-color="#fbbf24"/>
      <stop offset="100%" stop-color="#d97706"/>
    </linearGradient>
    <linearGradient id="cardGradMask" x1="0%" y1="0%" x2="0%" y2="100%">
      <stop offset="0%" stop-color="#ffffff"/>
      <stop offset="100%" stop-color="#f8fafc"/>
    </linearGradient>
  </defs>

  <!-- Full bleed for maskable icon -->
  <rect width="512" height="512" fill="url(#bgGradMask)"/>
  
  <!-- Safe zone receipt card (within 80% circle safe zone) -->
  <g transform="translate(0, 0)">
    <rect x="136" y="106" width="240" height="300" rx="18" fill="url(#cardGradMask)" filter="drop-shadow(0 12px 20px rgba(0,0,0,0.3))"/>
    
    <!-- Receipt Header Strip -->
    <path d="M 136 124 C 136 114 144 106 154 106 L 358 106 C 368 106 376 114 376 124 L 376 152 L 136 152 Z" fill="#4f46e5"/>
    
    <circle cx="162" cy="129" r="5" fill="#fbbf24"/>
    <circle cx="178" cy="129" r="5" fill="#a5b4fc"/>

    <!-- Content Lines -->
    <rect x="160" y="180" width="110" height="12" rx="6" fill="#334155"/>
    <rect x="300" y="180" width="50" height="12" rx="6" fill="#4f46e5"/>
    
    <rect x="160" y="210" width="120" height="8" rx="4" fill="#64748b"/>
    <rect x="310" y="210" width="40" height="8" rx="4" fill="#059669"/>
    
    <rect x="160" y="234" width="95" height="8" rx="4" fill="#64748b"/>
    <rect x="310" y="234" width="40" height="8" rx="4" fill="#059669"/>

    <rect x="160" y="258" width="110" height="8" rx="4" fill="#64748b"/>
    <rect x="310" y="258" width="40" height="8" rx="4" fill="#059669"/>

    <line x1="160" y1="284" x2="352" y2="284" stroke="#cbd5e1" stroke-width="2"/>

    <rect x="160" y="302" width="70" height="14" rx="7" fill="#1e293b"/>
    <rect x="260" y="298" width="92" height="22" rx="6" fill="#4f46e5"/>

    <circle cx="330" cy="355" r="24" fill="none" stroke="#dc2626" stroke-width="2.5" stroke-dasharray="3 3"/>
    <path d="M 322 355 L 327 360 L 339 349" fill="none" stroke="#dc2626" stroke-width="3" stroke-linecap="round" stroke-linejoin="round"/>
  </g>
</svg>
